<svg width="40" height="40" viewBox="0 0 40 40" fill="none" xmlns="http://www.w3.org/2000/svg">
<path fill-rule="evenodd" clip-rule="evenodd" d="M17.4239 5.22036C10.3671 6.44176 5.00002 12.5941 5.00002 20C5.00002 28.2843 11.7157 35 20 35C27.4059 35 33.5582 29.6329 34.7796 22.5761C32.5561 24.8211 29.4715 26.2121 26.0606 26.2121C19.2825 26.2121 13.7879 20.7175 13.7879 13.9394C13.7879 10.5285 15.1789 7.44393 17.4239 5.22036ZM1.66669 20C1.66669 9.87476 9.87479 1.66666 20 1.66666C21.2706 1.66666 22.5128 1.79616 23.7133 2.04325C24.4721 2.19943 25.0232 2.85788 25.0434 3.63233C25.0635 4.40678 24.5474 5.093 23.7977 5.28845C19.9554 6.29023 17.1213 9.78592 17.1213 13.9394C17.1213 18.8765 21.1235 22.8787 26.0606 22.8787C30.2141 22.8787 33.7098 20.0446 34.7115 16.2023C34.9069 15.4526 35.5932 14.9365 36.3676 14.9566C37.142 14.9768 37.8005 15.5279 37.9567 16.2867C38.2038 17.4872 38.3334 18.7294 38.3334 20C38.3334 30.1252 30.1252 38.3333 20 38.3333C9.87479 38.3333 1.66669 30.1252 1.66669 20Z" fill="#5B5A5A"/>
</svg>
